<svg xmlns="http://www.w3.org/2000/svg" viewBox="0 0 142.06 86.01"><defs><style>.cls-1,.cls-4{fill:#f7f6f5;}.cls-2,.cls-3,.cls-6,.cls-7{fill:none;}.cls-2,.cls-3,.cls-4{stroke:#d2cac7;}.cls-2,.cls-3,.cls-4,.cls-5,.cls-6,.cls-7{stroke-miterlimit:10;}.cls-3{stroke-width:1.01px;}.cls-5{fill:#fff;}.cls-5,.cls-6,.cls-7{stroke:#383838;}.cls-5,.cls-6{stroke-width:1.29px;}.cls-8{fill:#f1bc0f;}.cls-9{fill:#d2cac7;}.cls-10{fill:#a19896;}</style></defs><title>404404</title><g id="_404" data-name="404"><path class="cls-1" d="M62.7,36.23V29.4a7.51,7.51,0,0,1,15,0V51.61h-15Z"/><polyline class="cls-2" points="40.7 55.16 37.75 55.16 37.75 43.53 26.83 43.53 26.83 55.16 14.07 55.16 35.09 12.32 22.9 12.32 1.71 55.16 1.71 66.04 26.83 66.04 26.83 75.04 37.75 75.04 37.75 66.04 43.42 66.04 43.42 63.2"/><line class="cls-2" x1="51.39" y1="38.79" x2="51.39" y2="44.06"/><path class="cls-3" d="M89,39V56.7a18.75,18.75,0,0,1-37.5,0v-.65"/><path class="cls-4" d="M62.7,50.89v6.83a7.51,7.51,0,0,0,15,0V50.89"/><polygon class="cls-2" points="136.73 55.16 133.19 55.16 133.19 43.53 122.27 43.53 122.27 55.16 109.5 55.16 130.52 12.32 118.33 12.32 97.15 55.16 97.15 66.04 122.27 66.04 122.27 75.04 133.19 75.04 133.19 66.04 138.85 66.04 138.85 62.96 138.85 55.16 136.73 55.16"/><path class="cls-5" d="M70.21,12.15a18.5,18.5,0,1,0,18.5,18.5A18.5,18.5,0,0,0,70.21,12.15Zm0,33a14.5,14.5,0,1,1,14.5-14.5A14.5,14.5,0,0,1,70.21,45.15Z"/><line class="cls-6" x1="57.53" y1="43.77" x2="53.99" y2="47.31"/><line class="cls-7" x1="38.26" y1="59.86" x2="41.44" y2="63.04"/><rect class="cls-8" x="38.4" y="51.15" width="19" height="4.5" transform="translate(-23.73 49.51) rotate(-45)"/><line class="cls-6" x1="65.7" y1="35.33" x2="74.73" y2="25.98"/><line class="cls-6" x1="74.89" y1="35.17" x2="65.54" y2="26.14"/><rect class="cls-8" x="47.53" y="2.16" width="1.5" height="1.5" transform="translate(12.09 34.99) rotate(-45)"/><rect class="cls-8" x="47.53" y="7.16" width="1.5" height="1.5"/><rect class="cls-8" x="42.53" y="7.16" width="1.5" height="1.5" transform="translate(7.09 32.92) rotate(-45)"/><rect class="cls-8" x="52.53" y="7.16" width="1.5" height="1.5" transform="translate(10.01 39.99) rotate(-45)"/><rect class="cls-8" x="47.53" y="12.16" width="1.5" height="1.5" transform="translate(5.01 37.92) rotate(-45)"/><rect class="cls-8" x="89.53" y="73.75" width="1.5" height="1.5" transform="translate(-26.24 85.66) rotate(-45)"/><rect class="cls-8" x="89.53" y="78.75" width="1.5" height="1.5"/><rect class="cls-8" x="84.53" y="78.75" width="1.5" height="1.5" transform="translate(-31.24 83.59) rotate(-45)"/><rect class="cls-8" x="94.53" y="78.75" width="1.5" height="1.5" transform="translate(-28.31 90.66) rotate(-45)"/><rect class="cls-8" x="89.53" y="83.75" width="1.5" height="1.5" transform="translate(-33.31 88.59) rotate(-45)"/><rect class="cls-9" x="134.53" y="25.16" width="1.5" height="1.5" transform="translate(21.3 103.24) rotate(-45)"/><rect class="cls-9" x="134.53" y="30.16" width="1.5" height="1.5"/><rect class="cls-9" x="129.53" y="30.16" width="1.5" height="1.5" transform="translate(16.3 101.17) rotate(-45)"/><rect class="cls-9" x="139.53" y="30.16" width="1.5" height="1.5" transform="translate(19.23 108.24) rotate(-45)"/><rect class="cls-9" x="134.53" y="35.16" width="1.5" height="1.5" transform="translate(14.23 106.17) rotate(-45)"/><rect class="cls-8" x="70.75" y="1.55" width="1.5" height="1.5"/><rect class="cls-10" x="75.25" y="2.05" width="1.5" height="1.5"/><rect class="cls-8" x="79.53" y="3.16" width="1.5" height="1.5"/><rect class="cls-10" x="83.53" y="5.05" width="1.5" height="1.5"/><rect class="cls-8" x="87.53" y="7.85" width="1.5" height="1.5"/><rect class="cls-10" x="90.53" y="10.75" width="1.5" height="1.5"/><rect class="cls-8" x="93.35" y="14.55" width="1.5" height="1.5"/><rect class="cls-10" x="95.53" y="18.55" width="1.5" height="1.5"/><rect class="cls-8" x="96.95" y="22.65" width="1.5" height="1.5"/><rect class="cls-10" x="97.65" y="27.05" width="1.5" height="1.5"/><rect class="cls-9" x="13.53" y="62.95" width="1.5" height="1.5" transform="translate(-40.86 28.75) rotate(-45)"/><rect class="cls-9" x="13.53" y="67.95" width="1.5" height="1.5"/><rect class="cls-9" x="8.53" y="67.95" width="1.5" height="1.5" transform="translate(-45.86 26.68) rotate(-45)"/><rect class="cls-9" x="18.53" y="67.95" width="1.5" height="1.5" transform="translate(-42.93 33.75) rotate(-45)"/><rect class="cls-9" x="13.53" y="72.95" width="1.5" height="1.5" transform="translate(-47.93 31.68) rotate(-45)"/></g></svg>