<svg xmlns="http://www.w3.org/2000/svg" viewBox="-1 -1 69.5 95"><defs><style>.cls-1{fill:#383838;}</style></defs><title>trash_can</title><g id="Layer_2" data-name="Layer 2"><g id="Trash"><path class="cls-1" d="M62.53,12.23H45.6C44.85,5.33,39.82,0,33.71,0S22.56,5.33,21.81,12.23H5a5,5,0,0,0-5,5V21H67.53V17.23A5,5,0,0,0,62.53,12.23Zm-28.82-7c3.62,0,6.64,3,7.34,7H26.36C27.07,8.24,30.09,5.25,33.71,5.25Z"/><path class="cls-1" d="M7,83A10,10,0,0,0,17,93H50.63a10,10,0,0,0,10-10l3-59H4ZM46.51,37.22a3.36,3.36,0,1,1,6.7.41L50.68,79a3.36,3.36,0,0,1-6.7-.41Zm-16.27.16a3.36,3.36,0,0,1,6.71,0V78.8a3.36,3.36,0,1,1-6.71,0ZM17.13,34.07a3.36,3.36,0,0,1,3.55,3.15l2.53,41.34a3.36,3.36,0,0,1-6.7.41L14,37.63A3.38,3.38,0,0,1,17.13,34.07Z"/></g></g></svg>